<svg width="83" height="83" viewBox="0 0 83 83" fill="none" xmlns="http://www.w3.org/2000/svg">
<path d="M57.4081 56.7167H54.6414V53.95H58.7914C59.5554 53.95 60.1747 53.3306 60.1747 52.5667V47.0333C60.1747 46.2694 59.5554 45.65 58.7914 45.65H56.0247V13.8333C56.0247 13.0694 55.4054 12.45 54.6414 12.45H50.4914V2.76667H56.0247V0H25.5914V2.76667H31.1247V12.45H26.9747C26.2108 12.45 25.5914 13.0694 25.5914 13.8333V45.65H22.8247C22.0608 45.65 21.4414 46.2694 21.4414 47.0333V52.5667C21.4414 53.3306 22.0608 53.95 22.8247 53.95H26.9747V80.2333C26.9747 81.7614 28.2133 83 29.7414 83H51.8747C53.4028 83 54.6414 81.7614 54.6414 80.2333V76.0833H57.4081C59.7001 76.0833 61.5581 74.2253 61.5581 71.9333V60.8667C61.5581 58.5747 59.7001 56.7167 57.4081 56.7167ZM33.8914 2.76667H47.7247V12.45H33.8914V2.76667ZM33.8914 15.2167H47.7247V40.1167H33.8914V15.2167ZM51.8747 80.2333H29.7414V67.7833H51.8747V80.2333ZM51.8747 65.0167H29.7414V53.95H51.8747V65.0167ZM24.2081 51.1833V48.4167H26.9747C27.7387 48.4167 28.3581 47.7973 28.3581 47.0333V15.2167H31.1247V41.5C31.1247 42.2639 31.7441 42.8833 32.5081 42.8833H49.1081C49.872 42.8833 50.4914 42.2639 50.4914 41.5V15.2167H53.2581V47.0333C53.2581 47.7973 53.8775 48.4167 54.6414 48.4167H57.4081V51.1833H24.2081ZM58.7914 71.9333C58.7914 72.6973 58.172 73.3167 57.4081 73.3167H54.6414V59.4833H57.4081C58.172 59.4833 58.7914 60.1027 58.7914 60.8667V71.9333Z" fill="#505050"/>
<path d="M42.1925 17.9833H39.4258V20.75H42.1925V17.9833Z" fill="#505050"/>
<path d="M42.1925 23.5167H39.4258V26.2833H42.1925V23.5167Z" fill="#505050"/>
<path d="M42.1925 29.05H39.4258V31.8167H42.1925V29.05Z" fill="#505050"/>
<path d="M42.1925 34.5834H39.4258V37.35H42.1925V34.5834Z" fill="#505050"/>
</svg>
