<svg width="72" height="72" viewBox="0 0 72 72" fill="none" xmlns="http://www.w3.org/2000/svg">
<g clip-path="url(#clip0_517_5624)">
<path d="M25.4998 20.9999C24.9478 20.9999 24.4198 20.6969 24.1558 20.1719L15.1558 2.17193C14.7868 1.43093 15.0868 0.527925 15.8278 0.158925C16.5718 -0.213075 17.4688 0.0869252 17.8408 0.830925L26.8408 18.8309C27.2128 19.5719 26.9098 20.4719 26.1688 20.8439C25.9558 20.9489 25.7278 20.9999 25.4998 20.9999Z" fill="#505050"/>
<path d="M46.5008 20.9999C46.2758 20.9999 46.0478 20.9489 45.8318 20.8409C45.0908 20.4689 44.7908 19.5689 45.1598 18.8279L54.1598 0.827899C54.5318 0.0838996 55.4318 -0.2131 56.1728 0.1559C56.9138 0.5249 57.2138 1.4279 56.8448 2.1689L47.8448 20.1689C47.5778 20.6969 47.0498 20.9999 46.5008 20.9999Z" fill="#505050"/>
<path d="M58.5 3H13.5C12.672 3 12 2.328 12 1.5C12 0.672 12.672 0 13.5 0H58.5C59.328 0 60 0.672 60 1.5C60 2.328 59.328 3 58.5 3Z" fill="#505050"/>
<path d="M52.5 30H19.5C17.019 30 15 27.981 15 25.5V22.5C15 20.019 17.019 18 19.5 18H52.5C54.981 18 57 20.019 57 22.5V25.5C57 27.981 54.981 30 52.5 30ZM19.5 21C18.672 21 18 21.672 18 22.5V25.5C18 26.328 18.672 27 19.5 27H52.5C53.328 27 54 26.328 54 25.5V22.5C54 21.672 53.328 21 52.5 21H19.5Z" fill="#505050"/>
<path d="M52.5 72.0001H19.5C13.71 72.0001 9 67.2901 9 61.5001C9 60.0721 9.282 58.6861 9.837 57.3841L21.099 27.9631C21.396 27.1891 22.269 26.8081 23.037 27.0991C23.811 27.3961 24.198 28.2631 23.901 29.0371L12.618 58.5121C12.201 59.4901 12 60.4801 12 61.5001C12 65.6341 15.366 69.0001 19.5 69.0001H52.5C56.634 69.0001 60 65.6341 60 61.5001C60 60.4801 59.799 59.4901 59.403 58.5631L48.099 29.0371C47.802 28.2631 48.189 27.3961 48.963 27.0991C49.734 26.8051 50.601 27.1861 50.901 27.9631L62.184 57.4381C62.718 58.6891 63 60.0721 63 61.5001C63 67.2901 58.29 72.0001 52.5 72.0001Z" fill="#505050"/>
<path d="M45.366 49.5001C42.417 49.5001 40.875 48.0211 39.636 46.8331C38.529 45.7681 37.728 45.0001 35.985 45.0001C34.245 45.0001 33.447 45.7681 32.34 46.8331C31.101 48.0211 29.562 49.5001 26.616 49.5001C23.67 49.5001 22.131 48.0211 20.895 46.8301C19.788 45.7681 18.987 45.0001 17.25 45.0001C16.422 45.0001 15.75 44.3281 15.75 43.5001C15.75 42.6721 16.422 42.0001 17.25 42.0001C20.196 42.0001 21.735 43.4791 22.971 44.6701C24.078 45.7321 24.879 46.5001 26.616 46.5001C28.353 46.5001 29.154 45.7321 30.261 44.6701C31.497 43.4821 33.039 42.0001 35.985 42.0001C38.934 42.0001 40.476 43.4791 41.715 44.6671C42.825 45.7291 43.626 46.5001 45.366 46.5001C47.109 46.5001 47.91 45.7321 49.02 44.6671C50.259 43.4791 51.801 42.0001 54.75 42.0001C55.578 42.0001 56.25 42.6721 56.25 43.5001C56.25 44.3281 55.578 45.0001 54.75 45.0001C53.007 45.0001 52.206 45.7681 51.096 46.8331C49.857 48.0211 48.315 49.5001 45.366 49.5001Z" fill="#505050"/>
</g>
<defs>
<clipPath id="clip0_517_5624">
<rect width="72" height="72" fill="white"/>
</clipPath>
</defs>
</svg>
