<svg width="84" height="84" viewBox="0 0 84 84" fill="none" xmlns="http://www.w3.org/2000/svg">
<g clip-path="url(#clip0_517_5610)">
<path d="M68.0952 69.9338H66.1507V23.1258C66.1507 23.0467 66.1449 22.9688 66.1341 22.8926C67.7733 20.9137 68.7596 18.3755 68.7596 15.611V3.25221C69.5186 3.10816 70.0925 2.44141 70.0925 1.64062C70.0925 0.734672 69.3578 0 68.4518 0H15.5494C14.6434 0 13.9088 0.734672 13.9088 1.64062C13.9088 2.44141 14.4826 3.10816 15.2416 3.25221V15.611C15.2416 18.3661 16.2212 20.8966 17.8505 22.8726V22.8746V69.9338H15.9062C13.1491 69.9338 10.9062 72.1768 10.9062 74.9339V82.3594C10.9062 83.2653 11.6409 84 12.5469 84H71.4543C72.3603 84 73.095 83.2653 73.095 82.3594V74.9337C73.095 72.1768 70.8521 69.9338 68.0952 69.9338ZM65.4785 3.28125V15.611C65.4785 20.105 61.8226 23.761 57.3287 23.761H26.6727C22.1788 23.761 18.5229 20.105 18.5229 15.611V3.28125H65.4785ZM39.5363 33.6374H44.4652V37.202H39.5363V33.6374ZM33.831 30.3562V27.0423H50.1703V30.3562H33.831ZM21.1319 25.6074C22.7742 26.5214 24.6637 27.0423 26.6727 27.0423H30.5498V31.9968C30.5498 32.9027 31.2845 33.6374 32.1904 33.6374H36.2549V38.8426C36.2549 39.7486 36.9896 40.4832 37.8955 40.4832H46.1057C47.0116 40.4832 47.7463 39.7486 47.7463 38.8426V33.6374H51.8108C52.7168 33.6374 53.4514 32.9027 53.4514 31.9968V27.0423H57.3286C59.3375 27.0423 61.2272 26.5212 62.8693 25.6074V69.9338H51.6448C52.217 68.956 52.5453 67.8188 52.5453 66.6064V65.754H56.8831C57.7891 65.754 58.5238 65.0193 58.5238 64.1133V56.1045C58.5238 55.1985 57.7891 54.4638 56.8831 54.4638H52.5453V53.1584C52.5453 52.2524 51.8106 51.5178 50.9047 51.5178H33.1446C32.2386 51.5178 31.504 52.2524 31.504 53.1584V66.6064C31.504 67.8188 31.8323 68.956 32.4045 69.9338H21.1319V25.6074ZM34.7852 66.6063V54.7988H49.2644V66.6063C49.2644 68.4411 47.7716 69.9336 45.9369 69.9336H38.1129C36.2779 69.9338 34.7852 68.4411 34.7852 66.6063ZM52.5455 57.7451H55.2427V62.4725H52.5455V57.7451ZM69.8137 80.7188H14.1877V74.9337C14.1877 73.9861 14.9586 73.2149 15.9064 73.2149H68.0953C69.0429 73.2149 69.814 73.986 69.814 74.9337V80.7188H69.8137Z" fill="#505050"/>
<path d="M27.0044 19.7252C29.7163 19.7252 31.9228 17.5189 31.9228 14.8068C31.9228 12.0947 29.7165 9.88837 27.0044 9.88837C24.2922 9.88837 22.0859 12.0947 22.0859 14.8068C22.0859 17.5189 24.2922 19.7252 27.0044 19.7252ZM27.0044 13.1698C27.907 13.1698 28.6415 13.9043 28.6415 14.807C28.6415 15.7096 27.907 16.4441 27.0044 16.4441C26.1017 16.4441 25.3672 15.7096 25.3672 14.807C25.3672 13.9043 26.1017 13.1698 27.0044 13.1698Z" fill="#505050"/>
<path d="M50.8086 13.5157H60.2753C61.1813 13.5157 61.916 12.781 61.916 11.8751C61.916 10.9691 61.1813 10.2344 60.2753 10.2344H50.8086C49.9026 10.2344 49.168 10.9691 49.168 11.8751C49.168 12.781 49.9025 13.5157 50.8086 13.5157Z" fill="#505050"/>
<path d="M50.8086 19.3798H60.2753C61.1813 19.3798 61.916 18.6451 61.916 17.7392C61.916 16.8332 61.1813 16.0986 60.2753 16.0986H50.8086C49.9026 16.0986 49.168 16.8332 49.168 17.7392C49.168 18.6451 49.9025 19.3798 50.8086 19.3798Z" fill="#505050"/>
</g>
<defs>
<clipPath id="clip0_517_5610">
<rect width="84" height="84" fill="white"/>
</clipPath>
</defs>
</svg>
