<svg width="79" height="79" viewBox="0 0 79 79" fill="none" xmlns="http://www.w3.org/2000/svg">
<g clip-path="url(#clip0_517_5616)">
<path d="M3.3228 34.2333H21.7558C22.4833 34.2333 23.0728 33.6439 23.0728 32.9164V31.6H25.706V32.9164C25.706 33.6439 26.2955 34.2333 27.0224 34.2333H28.6274L29.6954 38.503C29.8425 39.0888 30.3687 39.4999 30.9726 39.4999H36.2392C36.8431 39.4999 37.3699 39.0888 37.5164 38.503L38.5844 34.2333H40.1894C40.9163 34.2333 41.5058 33.6439 41.5058 32.9164V26.3335C42.0072 26.3359 42.4671 26.0538 42.6913 25.6054L44.9533 21.0663H50.7226V65.8334H41.9415C44.1354 64.3784 45.4548 61.9217 45.456 59.2896V50.033C45.456 49.3062 44.8665 48.7167 44.139 48.7167H23.0728C22.3453 48.7167 21.7558 49.3062 21.7558 50.033H15.1723C14.4454 50.033 13.856 50.6225 13.856 51.35V59.2499C13.856 59.9773 14.4454 60.5668 15.1723 60.5668H21.8691C22.2247 62.7173 23.4561 64.6243 25.2703 65.8334H15.1729C14.4454 65.8334 13.856 66.4228 13.856 67.1497V77.6835C13.856 78.4103 14.4454 78.9998 15.1729 78.9998H75.7391C76.4666 78.9998 77.056 78.4103 77.056 77.6835V1.31694C77.056 0.589461 76.4666 0 75.7391 0H15.1729C14.4454 0 13.856 0.589461 13.856 1.31694V19.75C13.856 20.4774 14.4454 21.0669 15.1729 21.0669H22.2591L24.5277 25.6054C24.7507 26.0514 25.207 26.3335 25.706 26.3335V28.9668H23.0728V27.6498C23.0728 26.9229 22.4833 26.3335 21.7558 26.3335H3.3228C2.59532 26.3335 2.00586 26.9229 2.00586 27.6498V32.9164C2.00586 33.6439 2.59532 34.2333 3.3228 34.2333ZM16.4892 52.6663H21.7558V57.9335H16.4892V52.6663ZM24.3891 59.2499V51.35H42.8227V59.2896C42.8191 62.1749 40.4811 64.5128 37.5953 64.5164H29.6165C26.7313 64.5128 24.3927 62.1749 24.3897 59.2896V59.2499H24.3891ZM35.2109 36.8666H32.0009L31.3427 34.2333H35.8691L35.2109 36.8666ZM53.3559 21.0663H74.4227V65.8334H53.3559V21.0663ZM74.4227 76.3665H16.4892V68.4667H74.4227V76.3665ZM16.4892 2.63329H74.4227V18.433H16.4892V2.63329ZM25.2028 21.0663H42.009L40.6921 23.7002H26.5197L25.2028 21.0663ZM38.8725 26.3335V31.6H28.3393V26.3335H38.8725ZM4.63915 28.9668H20.4395V31.6H4.63915V28.9668Z" fill="#505050"/>
<path d="M33.6064 15.7998C36.5152 15.7998 38.873 13.4419 38.873 10.5332C38.873 7.62445 36.5152 5.2666 33.6064 5.2666C30.6977 5.2666 28.3398 7.62445 28.3398 10.5332C28.3398 13.4419 30.6977 15.7998 33.6064 15.7998ZM33.6064 7.8999C35.0608 7.8999 36.2397 9.07882 36.2397 10.5332C36.2397 11.9876 35.0608 13.1665 33.6064 13.1665C32.1521 13.1665 30.9731 11.9876 30.9731 10.5332C30.9731 9.07882 32.1521 7.8999 33.6064 7.8999Z" fill="#505050"/>
<path d="M41.5059 9.2168H44.1392V11.8501H41.5059V9.2168Z" fill="#505050"/>
<path d="M46.7734 9.2168H49.4067V11.8501H46.7734V9.2168Z" fill="#505050"/>
<path d="M62.5723 51.3501H65.2056V61.8833H62.5723V51.3501Z" fill="#505050"/>
<path d="M57.3066 51.3501H59.9399V61.8833H57.3066V51.3501Z" fill="#505050"/>
<path d="M67.8398 51.3501H70.4731V61.8833H67.8398V51.3501Z" fill="#505050"/>
</g>
<defs>
<clipPath id="clip0_517_5616">
<rect width="79" height="79" fill="white"/>
</clipPath>
</defs>
</svg>
